<svg width="24" height="24" viewBox="0 0 24 24" fill="none" xmlns="http://www.w3.org/2000/svg">
<path fill-rule="evenodd" clip-rule="evenodd" d="M12 4C16.4181 4 20 7.58187 20 12C20 16.4181 16.4181 20 12 20C7.58187 20 4 16.4181 4 12C4 7.58187 7.58187 4 12 4V4Z" stroke="#091C3F" stroke-width="1.2" stroke-linecap="round" stroke-linejoin="round"/>
<path fill-rule="evenodd" clip-rule="evenodd" d="M12 15.7333C12.5893 15.7333 13.0667 16.2107 13.0667 16.8C13.0667 17.3893 12.5893 17.8667 12 17.8667C11.4107 17.8667 10.9333 17.3893 10.9333 16.8C10.9333 16.2107 11.4107 15.7333 12 15.7333V15.7333Z" stroke="#4157FF" stroke-width="1.2" stroke-linecap="round" stroke-linejoin="round"/>
<path d="M9.54669 8.26666C9.97336 7.30666 10.88 6.66666 12 6.66666C13.4934 6.66666 14.6667 7.83999 14.6667 9.33332C14.6667 10.8267 13.4934 12 12 12V13.6" stroke="#4157FF" stroke-width="1.2" stroke-linecap="round" stroke-linejoin="round"/>
</svg>
