<svg width="269" height="216" viewBox="0 0 269 216" fill="none" xmlns="http://www.w3.org/2000/svg">
<ellipse cx="132.841" cy="117.173" rx="53.7148" ry="53.729" fill="#4157FF"/>
<g filter="url(#filter0_d_1_742)">
<path d="M114.205 121.01L127.415 132.524L151.477 101.821" stroke="white" stroke-width="5" stroke-linecap="round" stroke-linejoin="round"/>
</g>
<rect width="5.37243" height="6.26937" rx="1" transform="matrix(0.98191 -0.189347 0.189251 0.981929 138.523 31.9349)" fill="url(#paint0_linear_1_742)"/>
<rect width="5.37271" height="6.26903" rx="1" transform="matrix(0.873803 0.486281 -0.486085 0.873912 222.931 165.908)" fill="url(#paint1_linear_1_742)"/>
<rect width="5.37271" height="6.26903" rx="1" transform="matrix(0.873803 0.486281 -0.486085 0.873912 72.1484 207.449)" fill="url(#paint2_linear_1_742)"/>
<rect x="102.732" y="49.5461" width="2.47877" height="2.89266" rx="1" fill="url(#paint3_linear_1_742)"/>
<rect width="4.56527" height="5.32698" rx="1" transform="matrix(0.890958 0.454086 -0.453895 0.891055 219.225 29.0793)" fill="url(#paint4_linear_1_742)"/>
<rect x="212.167" y="52.4723" width="2.47877" height="2.89266" rx="1" fill="url(#paint5_linear_1_742)"/>
<rect x="204.853" y="161.142" width="2.47877" height="2.89266" rx="1" fill="url(#paint6_linear_1_742)"/>
<rect x="224.702" y="119.346" width="2.47877" height="2.89266" rx="1" fill="url(#paint7_linear_1_742)"/>
<rect x="252.908" y="81.7298" width="2.47877" height="2.89266" rx="1" fill="url(#paint8_linear_1_742)"/>
<rect x="229.924" y="148.603" width="2.47877" height="2.89266" rx="1" fill="url(#paint9_linear_1_742)"/>
<rect x="178.882" y="203.797" width="2.47877" height="2.89266" rx="1" fill="url(#paint10_linear_1_742)"/>
<rect width="3.53959" height="4.13029" rx="1" transform="matrix(0.922838 -0.385187 0.385014 0.922911 74.1487 39.1182)" fill="url(#paint11_linear_1_742)"/>
<rect width="3.53954" height="4.13036" rx="1" transform="matrix(0.954493 0.298234 -0.298091 0.954538 6.91724 186.693)" fill="url(#paint12_linear_1_742)"/>
<rect width="1.34046" height="1.56421" rx="0.670232" transform="matrix(0.954493 0.298234 -0.298091 0.954538 63.2524 63.9662)" fill="url(#paint13_linear_1_742)"/>
<rect width="1.34046" height="1.56421" rx="0.670232" transform="matrix(0.954493 0.298234 -0.298091 0.954538 200.097 72.3253)" fill="url(#paint14_linear_1_742)"/>
<rect width="1.34046" height="1.56421" rx="0.670232" transform="matrix(0.954493 0.298234 -0.298091 0.954538 255.462 96.358)" fill="url(#paint15_linear_1_742)"/>
<rect width="1.34046" height="1.56421" rx="0.670232" transform="matrix(0.954493 0.298234 -0.298091 0.954538 74.3408 161.525)" fill="url(#paint16_linear_1_742)"/>
<rect width="1.34046" height="1.56421" rx="0.670232" transform="matrix(0.954493 0.298234 -0.298091 0.954538 25.6453 14.8557)" fill="url(#paint17_linear_1_742)"/>
<rect width="2.54543" height="2.97031" rx="1" transform="matrix(0.954493 0.298234 -0.298091 0.954538 35.4644 115.914)" fill="url(#paint18_linear_1_742)"/>
<rect width="2.54543" height="2.97031" rx="1" transform="matrix(0.954493 0.298234 -0.298091 0.954538 38.749 153.705)" fill="url(#paint19_linear_1_742)"/>
<rect width="2.54543" height="2.97031" rx="1" transform="matrix(0.954493 0.298234 -0.298091 0.954538 113.802 190.147)" fill="url(#paint20_linear_1_742)"/>
<rect width="3.53954" height="4.13036" rx="1" transform="matrix(0.954493 0.298234 -0.298091 0.954538 156.986 13.811)" fill="url(#paint21_linear_1_742)"/>
<rect width="4.56001" height="5.32116" rx="1" transform="matrix(0.954493 0.298234 -0.298091 0.954538 48.7 49.3371)" fill="url(#paint22_linear_1_742)"/>
<rect width="4.5611" height="5.31988" rx="1" transform="matrix(-0.0462226 -0.998931 0.99893 -0.0462469 132.147 4.80226)" fill="url(#paint23_linear_1_742)"/>
<rect width="7.0324" height="8.20449" rx="1" transform="matrix(-0.710445 0.703753 -0.703565 -0.710631 10.7686 93.8333)" fill="url(#paint24_linear_1_742)"/>
<rect width="7.03156" height="8.20547" rx="1" transform="matrix(0.979084 -0.203456 0.203353 0.979106 260.219 195.945)" fill="url(#paint25_linear_1_742)"/>
<defs>
<filter id="filter0_d_1_742" x="108.705" y="99.3213" width="48.2715" height="42.7024" filterUnits="userSpaceOnUse" color-interpolation-filters="sRGB">
<feFlood flood-opacity="0" result="BackgroundImageFix"/>
<feColorMatrix in="SourceAlpha" type="matrix" values="0 0 0 0 0 0 0 0 0 0 0 0 0 0 0 0 0 0 127 0" result="hardAlpha"/>
<feOffset dy="4"/>
<feGaussianBlur stdDeviation="1.5"/>
<feColorMatrix type="matrix" values="0 0 0 0 0 0 0 0 0 0 0 0 0 0 0 0 0 0 0.15 0"/>
<feBlend mode="normal" in2="BackgroundImageFix" result="effect1_dropShadow_1_742"/>
<feBlend mode="normal" in="SourceGraphic" in2="effect1_dropShadow_1_742" result="shape"/>
</filter>
<linearGradient id="paint0_linear_1_742" x1="2.68621" y1="0" x2="2.68621" y2="6.26937" gradientUnits="userSpaceOnUse">
<stop stop-color="#4157FF"/>
<stop offset="1" stop-color="#A3ADFF"/>
</linearGradient>
<linearGradient id="paint1_linear_1_742" x1="2.68635" y1="0" x2="2.68635" y2="6.26903" gradientUnits="userSpaceOnUse">
<stop stop-color="#4157FF"/>
<stop offset="1" stop-color="#A3ADFF"/>
</linearGradient>
<linearGradient id="paint2_linear_1_742" x1="2.68635" y1="0" x2="2.68635" y2="6.26903" gradientUnits="userSpaceOnUse">
<stop stop-color="#4157FF"/>
<stop offset="1" stop-color="#A3ADFF"/>
</linearGradient>
<linearGradient id="paint3_linear_1_742" x1="103.971" y1="49.5461" x2="103.971" y2="52.4388" gradientUnits="userSpaceOnUse">
<stop stop-color="#4157FF"/>
<stop offset="1" stop-color="#A3ADFF"/>
</linearGradient>
<linearGradient id="paint4_linear_1_742" x1="2.28264" y1="0" x2="2.28264" y2="5.32698" gradientUnits="userSpaceOnUse">
<stop stop-color="#4157FF"/>
<stop offset="1" stop-color="#A3ADFF"/>
</linearGradient>
<linearGradient id="paint5_linear_1_742" x1="213.407" y1="52.4723" x2="213.407" y2="55.3649" gradientUnits="userSpaceOnUse">
<stop stop-color="#4157FF"/>
<stop offset="1" stop-color="#A3ADFF"/>
</linearGradient>
<linearGradient id="paint6_linear_1_742" x1="206.093" y1="161.142" x2="206.093" y2="164.035" gradientUnits="userSpaceOnUse">
<stop stop-color="#4157FF"/>
<stop offset="1" stop-color="#A3ADFF"/>
</linearGradient>
<linearGradient id="paint7_linear_1_742" x1="225.942" y1="119.346" x2="225.942" y2="122.239" gradientUnits="userSpaceOnUse">
<stop stop-color="#4157FF"/>
<stop offset="1" stop-color="#A3ADFF"/>
</linearGradient>
<linearGradient id="paint8_linear_1_742" x1="254.147" y1="81.7298" x2="254.147" y2="84.6225" gradientUnits="userSpaceOnUse">
<stop stop-color="#4157FF"/>
<stop offset="1" stop-color="#A3ADFF"/>
</linearGradient>
<linearGradient id="paint9_linear_1_742" x1="231.164" y1="148.603" x2="231.164" y2="151.496" gradientUnits="userSpaceOnUse">
<stop stop-color="#4157FF"/>
<stop offset="1" stop-color="#A3ADFF"/>
</linearGradient>
<linearGradient id="paint10_linear_1_742" x1="180.121" y1="203.797" x2="180.121" y2="206.689" gradientUnits="userSpaceOnUse">
<stop stop-color="#4157FF"/>
<stop offset="1" stop-color="#A3ADFF"/>
</linearGradient>
<linearGradient id="paint11_linear_1_742" x1="1.7698" y1="0" x2="1.7698" y2="4.13029" gradientUnits="userSpaceOnUse">
<stop stop-color="#4157FF"/>
<stop offset="1" stop-color="#A3ADFF"/>
</linearGradient>
<linearGradient id="paint12_linear_1_742" x1="1.76977" y1="0" x2="1.76977" y2="4.13036" gradientUnits="userSpaceOnUse">
<stop stop-color="#4157FF"/>
<stop offset="1" stop-color="#A3ADFF"/>
</linearGradient>
<linearGradient id="paint13_linear_1_742" x1="0.670232" y1="0" x2="0.670232" y2="1.56421" gradientUnits="userSpaceOnUse">
<stop stop-color="#4157FF"/>
<stop offset="1" stop-color="#A3ADFF"/>
</linearGradient>
<linearGradient id="paint14_linear_1_742" x1="0.670232" y1="0" x2="0.670232" y2="1.56421" gradientUnits="userSpaceOnUse">
<stop stop-color="#4157FF"/>
<stop offset="1" stop-color="#A3ADFF"/>
</linearGradient>
<linearGradient id="paint15_linear_1_742" x1="0.670232" y1="0" x2="0.670232" y2="1.56421" gradientUnits="userSpaceOnUse">
<stop stop-color="#4157FF"/>
<stop offset="1" stop-color="#A3ADFF"/>
</linearGradient>
<linearGradient id="paint16_linear_1_742" x1="0.670232" y1="0" x2="0.670232" y2="1.56421" gradientUnits="userSpaceOnUse">
<stop stop-color="#4157FF"/>
<stop offset="1" stop-color="#A3ADFF"/>
</linearGradient>
<linearGradient id="paint17_linear_1_742" x1="0.670232" y1="0" x2="0.670232" y2="1.56421" gradientUnits="userSpaceOnUse">
<stop stop-color="#4157FF"/>
<stop offset="1" stop-color="#A3ADFF"/>
</linearGradient>
<linearGradient id="paint18_linear_1_742" x1="1.27271" y1="0" x2="1.27271" y2="2.97031" gradientUnits="userSpaceOnUse">
<stop stop-color="#4157FF"/>
<stop offset="1" stop-color="#A3ADFF"/>
</linearGradient>
<linearGradient id="paint19_linear_1_742" x1="1.27271" y1="0" x2="1.27271" y2="2.97031" gradientUnits="userSpaceOnUse">
<stop stop-color="#4157FF"/>
<stop offset="1" stop-color="#A3ADFF"/>
</linearGradient>
<linearGradient id="paint20_linear_1_742" x1="1.27271" y1="0" x2="1.27271" y2="2.97031" gradientUnits="userSpaceOnUse">
<stop stop-color="#4157FF"/>
<stop offset="1" stop-color="#A3ADFF"/>
</linearGradient>
<linearGradient id="paint21_linear_1_742" x1="1.76977" y1="0" x2="1.76977" y2="4.13036" gradientUnits="userSpaceOnUse">
<stop stop-color="#4157FF"/>
<stop offset="1" stop-color="#A3ADFF"/>
</linearGradient>
<linearGradient id="paint22_linear_1_742" x1="2.28" y1="0" x2="2.28" y2="5.32116" gradientUnits="userSpaceOnUse">
<stop stop-color="#4157FF"/>
<stop offset="1" stop-color="#A3ADFF"/>
</linearGradient>
<linearGradient id="paint23_linear_1_742" x1="2.28055" y1="0" x2="2.28055" y2="5.31988" gradientUnits="userSpaceOnUse">
<stop stop-color="#4157FF"/>
<stop offset="1" stop-color="#A3ADFF"/>
</linearGradient>
<linearGradient id="paint24_linear_1_742" x1="3.5162" y1="0" x2="3.5162" y2="8.20449" gradientUnits="userSpaceOnUse">
<stop stop-color="#4157FF"/>
<stop offset="1" stop-color="#A3ADFF"/>
</linearGradient>
<linearGradient id="paint25_linear_1_742" x1="3.51578" y1="0" x2="3.51578" y2="8.20547" gradientUnits="userSpaceOnUse">
<stop stop-color="#4157FF"/>
<stop offset="1" stop-color="#A3ADFF"/>
</linearGradient>
</defs>
</svg>
